<svg id="vector" xmlns="http://www.w3.org/2000/svg" width="22" height="22" viewBox="0 0 22 22"><defs><clipPath id="clip_path_0"><path d="M0,0h22v22h-22z"/></clipPath></defs><g id="g_0"><path fill="#666" d="M20.625,3.666L5.958,3.666a0.458,0.458 0,0 0,0 0.917h14.667a0.458,0.458 0,0 0,0 -0.917Z" stroke="#666" stroke-width="0.5" clip-path="url(#clip_path_0)"/><path fill="#666" d="M20.625,10.274L5.958,10.274a0.458,0.458 0,0 0,0 0.917h14.667a0.458,0.458 0,0 0,0 -0.917Z" stroke="#666" stroke-width="0.5"/><path fill="#666" d="M20.625,16.882L5.958,16.882a0.458,0.458 0,1 0,0 0.917h14.667a0.458,0.458 0,1 0,0 -0.917Z" stroke="#666" stroke-width="0.5"/><path fill="#666" d="M3.209,15.048a2.292,2.292 0,1 0,2.292 2.292A2.294,2.294 0,0 0,3.209 15.048ZM3.209,18.715a1.375,1.375 0,1 1,1.375 -1.375A1.377,1.377 0,0 1,3.209 18.715Z" stroke="#666" stroke-width="0.5"/><path fill="#666" d="M3.209,8.441a2.292,2.292 0,1 0,2.292 2.292A2.294,2.294 0,0 0,3.209 8.441ZM3.209,12.108a1.375,1.375 0,1 1,1.375 -1.375A1.377,1.377 0,0 1,3.209 12.108Z" stroke="#666" stroke-width="0.5"/><path fill="#666" d="M3.209,1.833a2.292,2.292 0,1 0,2.292 2.292A2.294,2.294 0,0 0,3.209 1.833ZM3.209,5.5a1.375,1.375 0,1 1,1.375 -1.375A1.377,1.377 0,0 1,3.209 5.5Z" stroke="#666" stroke-width="0.5"/></g></svg>